<svg width="40" height="40" viewBox="0 0 40 40" fill="none" xmlns="http://www.w3.org/2000/svg">
<circle cx="20" cy="20" r="20" fill="#DADADA"/>
<path d="M25.1877 12.0253L22.9134 10V16.3291C26.3502 21.7975 29.7365 18.6076 31 16.3291V10L27.9675 12.0253H25.1877Z" fill="black"/>
<path d="M27.9675 20.8861C23.5199 21.2911 21.9025 18.0169 21.6498 16.3291H18.6173L14.8267 19.8734V14.8101L12.2996 12.2785C10.0758 11.4684 9.18291 12.4473 9.01444 13.038C8.81227 14.6582 10.7834 15.5696 11.7942 15.8228V27.7215L13.5632 30H22.1552C23.7726 28.7848 22.8291 27.4684 22.1552 26.962H19.8809L25.1877 23.4177V30H27.9675V20.8861Z" fill="black"/>
</svg>
