<svg width="35" height="48" viewBox="0 0 35 48" fill="none" xmlns="http://www.w3.org/2000/svg">
<path d="M14.299 32.9927C14.299 29.8748 14.3351 26.7552 14.2875 23.6372C14.2481 21.0824 15.5665 18.9759 17.9341 18.4143C18.3971 18.3043 18.3347 17.9956 18.2855 17.7346C18.2116 17.3372 18.6155 16.7806 17.9555 16.5623C17.0475 16.2618 16.6912 15.6346 16.729 14.6971C16.7667 13.7678 16.7257 12.8368 16.7405 11.9075C16.7569 10.9207 17.3381 10.3411 18.3216 10.3411C22.5331 10.3346 26.7462 10.3362 30.9576 10.3411C31.9001 10.3411 32.4747 10.7976 32.5322 11.7335C32.6012 12.8762 32.565 14.0272 32.5371 15.1749C32.5207 15.8497 32.1102 16.3521 31.5027 16.5015C30.5603 16.733 31.1382 17.4128 31.0036 17.8709C30.846 18.4028 31.3041 18.3848 31.621 18.4816C33.5288 19.0678 34.9376 20.8493 34.9441 22.8589C34.9688 29.5874 34.9786 36.3175 34.9392 43.046C34.9244 45.5729 32.8474 47.5793 30.3222 47.5957C26.6296 47.6203 22.937 47.6105 19.2444 47.6023C16.3431 47.5957 14.322 45.5959 14.3006 42.6782C14.2776 39.4503 14.2957 36.2223 14.2957 32.9944L14.299 32.9927ZM24.7037 24.5714C21.9978 24.5714 19.292 24.5813 16.5861 24.5616C16.0968 24.5583 15.8785 24.6207 15.8818 25.2068C15.908 30.3722 15.9064 35.5393 15.8834 40.7063C15.8818 41.2531 16.0394 41.3762 16.5648 41.3729C21.9502 41.3532 27.334 41.3516 32.7194 41.3746C33.3449 41.3779 33.4944 41.1858 33.4927 40.5832C33.4697 35.4982 33.4697 30.4149 33.4944 25.33C33.4976 24.7291 33.3696 24.5452 32.7391 24.555C30.0612 24.5928 27.3816 24.5714 24.7037 24.5714ZM24.6363 42.8424C21.96 42.8424 19.2821 42.8802 16.6058 42.8194C15.8128 42.8014 15.8177 43.1708 15.9327 43.6929C16.2134 44.972 17.5959 46.1065 18.9587 46.1147C22.7285 46.1361 26.4982 46.1361 30.2664 46.1147C31.7572 46.1065 33.0116 45.0032 33.3499 43.5714C33.4894 42.9804 33.3532 42.8244 32.7473 42.8293C30.0431 42.8572 27.3389 42.8408 24.6347 42.8408L24.6363 42.8424ZM24.6265 23.0018C27.3602 23.0018 30.0923 23.0084 32.8261 22.987C33.0231 22.987 33.473 23.2842 33.4188 22.6553C33.2924 21.1891 31.9937 19.8444 30.5127 19.8329C26.6312 19.8001 22.7514 19.8034 18.87 19.8264C17.4728 19.8346 16.3382 20.7836 15.9655 22.1381C15.8177 22.6783 15.8013 23.0346 16.5911 23.0198C19.269 22.9722 21.9469 23.0018 24.6265 23.0018ZM24.6183 15.0993C25.9022 15.0993 27.1878 15.1174 28.4718 15.0928C29.3075 15.0764 30.4569 15.4606 30.892 14.9352C31.3106 14.4278 30.9757 13.3195 31.0299 12.4789C31.0644 11.9453 30.9034 11.8008 30.3633 11.8057C27.1665 11.832 23.9697 11.8106 20.7713 11.8238C19.9569 11.8271 18.8897 11.4757 18.3971 11.9535C17.8602 12.4723 18.3019 13.5576 18.2116 14.3884C18.1459 14.9959 18.4136 15.1158 18.962 15.1076C20.8468 15.0796 22.7334 15.0961 24.6183 15.0961V15.0993ZM24.6051 18.2173C25.9991 18.2173 27.3947 18.1746 28.7854 18.2354C29.4668 18.2649 29.4734 17.9349 29.429 17.4571C29.3896 17.045 29.6359 16.5459 28.815 16.5606C26.0287 16.6099 23.2391 16.6066 20.4528 16.5606C19.7845 16.5491 19.8141 16.8857 19.8683 17.3028C19.9175 17.6771 19.5563 18.2666 20.4249 18.2337C21.8172 18.1795 23.2128 18.2189 24.6051 18.2189V18.2173Z" fill="#050505"/>
<path d="M1.63851 22.8212C1.63851 18.966 1.65328 15.1108 1.62701 11.2557C1.62044 10.3543 1.99315 9.77304 2.82888 9.55631C3.2492 9.44631 3.19666 9.19017 3.15726 8.95045C2.98978 7.91442 3.41175 7.15422 4.21628 6.55986C4.67765 6.21998 4.78602 5.77667 4.7696 5.21514C4.72855 3.82118 4.75975 2.42721 4.75482 1.03324C4.75318 0.491415 4.84677 0.0382524 5.51502 0.00213073C6.22924 -0.0372747 6.29984 0.476638 6.30805 0.983983C6.32775 2.32377 6.35238 3.6652 6.29984 5.0017C6.27357 5.68801 6.4197 6.2364 6.98287 6.63538C7.72172 7.16079 8.0189 7.86024 7.88099 8.75507C7.81203 9.20659 7.9286 9.46272 8.45401 9.62199C9.2963 9.87484 9.52288 10.6104 9.52124 11.4363C9.51631 15.5919 9.51795 19.7475 9.51795 23.9032C9.51795 27.43 9.52616 30.9568 9.50646 34.4835C9.50482 34.8792 9.60826 35.1091 9.93664 35.3373C10.9382 36.0319 11.2863 36.9759 10.9792 38.0038C10.6985 38.9462 9.7314 39.7097 8.62476 39.6752C7.90397 39.6522 7.81695 39.9527 7.87278 40.5208C7.90233 40.818 7.89248 41.1234 7.87442 41.4222C7.82352 42.3236 7.84979 43.0739 8.7988 43.688C9.57542 44.1888 9.71006 45.2035 9.32421 46.1279C8.97613 46.9603 8.35549 47.5432 7.42454 47.5809C6.17013 47.6335 4.90916 47.6253 3.65311 47.5809C2.75007 47.5514 1.94061 46.8404 1.68612 45.9752C1.42178 45.0738 1.75344 43.8949 2.54155 43.4302C3.08337 43.1117 3.23771 42.7357 3.17039 42.1725C3.14412 41.9574 3.16711 41.7358 3.16547 41.5174C3.16218 40.9707 3.32309 40.3451 3.10964 39.8985C2.88963 39.4371 2.18526 39.7343 1.70254 39.5767C0.737105 39.2598 0.200206 38.6113 0.0376585 37.6623C-0.124889 36.7165 0.244537 35.9071 1.03429 35.4096C1.53014 35.096 1.64836 34.7594 1.64671 34.2225C1.62865 30.4215 1.63686 26.6222 1.63686 22.8212H1.63851ZM3.11785 21.3336C3.11785 24.5599 3.1277 27.7863 3.108 31.0126C3.10472 31.5347 3.16382 31.8056 3.79431 31.7793C4.99454 31.7284 6.19969 31.7498 7.40155 31.7728C7.82352 31.781 7.98935 31.6578 7.96965 31.2178C7.93845 30.5085 7.94666 29.7959 7.96801 29.085C7.97786 28.7238 7.91875 28.5202 7.48693 28.5547C6.91884 28.599 6.40821 28.466 6.41313 27.7551C6.41806 27.0786 6.9369 26.9899 7.44753 27.0129C8.18309 27.0474 7.94174 26.5187 7.95323 26.1674C7.96472 25.7979 8.13876 25.3004 7.42126 25.3464C6.89257 25.3792 6.40657 25.2085 6.41477 24.5616C6.42298 23.9114 6.89585 23.7505 7.44424 23.8047C8.18802 23.8769 7.95651 23.3351 7.94994 22.9903C7.94174 22.6521 8.21101 22.0938 7.45902 22.1562C6.92212 22.2005 6.42627 22.0938 6.41313 21.4272C6.40164 20.7655 6.86794 20.6161 7.42126 20.6851C8.05667 20.7622 8.01562 20.3222 7.9483 19.9594C7.88591 19.6211 8.31445 19.0021 7.48693 19.0136C6.93033 19.0218 6.40492 18.9118 6.41477 18.2009C6.42298 17.5458 6.91391 17.4111 7.44424 17.4292C8.32101 17.4571 7.88099 16.8036 7.95323 16.4441C8.03532 16.0385 7.97457 15.674 7.38513 15.7545C6.86465 15.8251 6.42955 15.6691 6.41477 15.0583C6.39836 14.3966 6.86137 14.2324 7.41469 14.2866C7.86128 14.3309 7.98771 14.1536 7.97293 13.7349C7.9483 13.0256 7.93188 12.3114 7.97786 11.6038C8.01234 11.0603 7.78083 10.9766 7.30796 10.9897C6.13401 11.0209 4.95677 11.0291 3.78118 10.9864C3.24428 10.9667 3.10636 11.121 3.10964 11.6563C3.13591 14.8826 3.12278 18.1089 3.12278 21.3353L3.11785 21.3336ZM5.5692 38.1302C6.57896 38.1302 7.59037 38.1203 8.60013 38.1335C9.1551 38.14 9.48347 37.9184 9.51631 37.3404C9.55079 36.7346 9.13211 36.4686 8.65596 36.4604C6.58225 36.4226 4.50689 36.4308 2.43154 36.4555C1.91763 36.462 1.49894 36.792 1.52357 37.3158C1.54984 37.8626 1.94226 38.1483 2.53826 38.1351C3.54803 38.1121 4.55779 38.1286 5.5692 38.1286V38.1302ZM5.49367 34.9613C6.17506 34.9613 6.8548 34.9564 7.53619 34.9613C8.23892 34.9679 7.93681 34.4326 7.94009 34.1338C7.94502 33.8334 8.2225 33.3112 7.52141 33.3178C6.18655 33.3309 4.85333 33.3309 3.51847 33.3145C3.18845 33.3112 3.1277 33.4344 3.108 33.7381C3.02755 34.9613 3.01441 34.9597 4.26718 34.9597C4.67601 34.9597 5.08484 34.9597 5.49203 34.9597L5.49367 34.9613ZM5.6086 44.4843C5.06514 44.4843 4.52167 44.4925 3.9782 44.4827C3.48728 44.4745 3.18353 44.7536 3.1392 45.1854C3.08994 45.655 3.35428 46.0819 3.85506 46.1049C4.96662 46.1558 6.08475 46.1525 7.19796 46.1082C7.68396 46.0885 7.98935 45.7519 7.94174 45.2281C7.89576 44.7224 7.61336 44.458 7.07646 44.481C6.58882 44.5007 6.09789 44.486 5.6086 44.486V44.4843ZM4.75975 41.2104C4.75975 41.6176 4.7893 42.028 4.75318 42.432C4.69735 43.0559 5.15216 42.9311 5.44442 42.872C5.77936 42.8047 6.40164 43.2496 6.39836 42.432C6.39671 41.7522 6.35731 41.0708 6.40985 40.396C6.45582 39.8164 6.25387 39.7097 5.69727 39.6719C4.90423 39.6194 4.61033 39.8591 4.75318 40.6406C4.78766 40.8245 4.7581 41.0199 4.7581 41.2104H4.75975ZM5.58726 9.49228C6.1964 9.66468 6.4197 9.43974 6.42298 8.75999C6.42627 8.05562 5.9337 7.49409 5.53144 7.49245C5.06514 7.48917 4.72034 8.08846 4.73183 8.7682C4.74168 9.42496 4.91573 9.66632 5.58726 9.49392V9.49228Z" fill="#030303"/>
<path d="M24.6804 39.7015C23.4227 39.6293 22.2127 39.4076 21.152 38.6491C19.4986 37.4669 19.4658 35.5689 21.1274 34.3916C21.4541 34.1601 21.6708 33.8991 21.835 33.5543C22.4113 32.3442 23.4342 31.7876 24.7133 31.7925C25.989 31.7974 26.938 32.469 27.4881 33.615C27.6506 33.9532 27.846 34.1716 28.1465 34.3834C29.8245 35.5721 29.7752 37.5638 28.0726 38.7164C27.0448 39.4125 25.8807 39.603 24.6821 39.7031L24.6804 39.7015ZM24.6049 38.1236C25.5178 38.1663 26.4011 37.9693 27.2057 37.457C28.0332 36.9283 28.0595 36.109 27.2204 35.6115C26.6885 35.2963 26.2993 34.9499 26.1089 34.3161C25.9037 33.6364 25.3339 33.3227 24.6082 33.3195C23.9317 33.3162 23.3719 33.6692 23.2011 34.2324C22.9991 34.8957 22.6231 35.2536 22.0846 35.6099C21.2144 36.1862 21.2407 36.8791 22.1092 37.4669C22.8497 37.9677 23.6904 38.1499 24.6082 38.122L24.6049 38.1236Z" fill="#050505"/>
<path d="M27.0811 30.9535C27.0811 29.6843 28.1368 28.5973 29.3994 28.5662C30.6128 28.535 31.8064 29.75 31.7818 30.9896C31.7572 32.2424 30.6555 33.3227 29.4076 33.3162C28.145 33.3112 27.0811 32.2292 27.0827 30.9535H27.0811ZM30.2253 30.9141C30.2089 30.4199 29.9199 30.1571 29.4076 30.1637C28.9036 30.1703 28.5735 30.4642 28.5785 30.9551C28.5834 31.4296 28.8691 31.7613 29.4027 31.7449C29.9068 31.7284 30.2105 31.4871 30.2253 30.9141Z" fill="#050505"/>
<path d="M24.6055 26.2609C25.9634 26.2511 27.0421 27.297 27.0175 28.5957C26.9945 29.8271 25.8862 30.9141 24.6433 30.9256C23.3495 30.9371 22.3233 29.9076 22.3184 28.5924C22.3135 27.2132 23.2378 26.2708 24.6039 26.2609H24.6055ZM25.4462 28.512C25.3871 28.0637 25.1424 27.737 24.6203 27.7485C24.1097 27.76 23.8027 28.0818 23.8141 28.5727C23.8256 29.0522 24.1163 29.3822 24.6417 29.374C25.1605 29.3658 25.4265 29.0784 25.4445 28.512H25.4462Z" fill="#050505"/>
<path d="M22.2215 30.9666C22.2314 32.2112 21.1395 33.3096 19.8868 33.3162C18.6241 33.3227 17.6045 32.2571 17.5487 30.9781C17.5011 29.86 18.3861 28.6269 19.9032 28.576C21.1083 28.5366 22.21 29.7204 22.2199 30.9666H22.2215ZM19.6733 30.1555C19.3252 30.1522 19.0461 30.4642 19.0543 30.9617C19.0642 31.4625 19.3663 31.7613 19.8999 31.7449C20.3925 31.7285 20.6683 31.4543 20.6699 30.9732C20.6716 30.4642 20.4122 30.1572 19.6733 30.1555Z" fill="#050505"/>
</svg>
